PathFileType	4	(X/Y/Z)	output.trc
DataRate	CameraRate	NumFrames	NumMarkers	Units	OrigDataRate	OrigDataStartFrame	OrigNumFrames
100	100	12	23	m	100	1542	6164
Frame#	Time	C7			T8			EL			EM			US			RS			AA			Fore_Clus_1			Fore_Clus_2			Fore_Clus_3			Fore_Clus_4			Hum_Clus_1			Hum_Clus_2			Hum_Clus_3			Hum_Clus_4			Thor_Clus_1			Thor_Clus_2			Thor_Clus_3			Thor_Clus_4			IJ			PX			GH			Thor_Clus_5		
		X1	Y1	Z1	X2	Y2	Z2	X3	Y3	Z3	X4	Y4	Z4	X5	Y5	Z5	X6	Y6	Z6	X7	Y7	Z7	X8	Y8	Z8	X9	Y9	Z9	X10	Y10	Z10	X11	Y11	Z11	X12	Y12	Z12	X13	Y13	Z13	X14	Y14	Z14	X15	Y15	Z15	X16	Y16	Z16	X17	Y17	Z17	X18	Y18	Z18	X19	Y19	Z19	X20	Y20	Z20	X21	Y21	Z21	X22	Y22	Z22	X23	Y23	Z23
1541	15.410000	-0.072199	1.555593	-0.052543	-0.099927	1.321668	-0.142771	-0.284381	1.148908	0.074609	-0.248064	1.142882	0.016783	-0.267227	0.884721	0.126606	-0.213883	0.889314	0.156882	-0.233883	1.476674	0.057478	-0.289084	0.940174	0.141556	-0.280816	0.888246	0.156651	-0.259689	0.896402	0.173344	-0.255265	0.953695	0.168417	-0.237945	1.246578	0.139620	-0.288921	1.258941	0.109725	-0.288285	1.322579	0.113516	-0.234247	1.320422	0.136578	0.050909	1.447961	0.061175	0.012613	1.392605	0.112452	0.013029	1.443440	0.084916	0.066941	1.398976	0.077908	-0.004449	1.462466	0.029019	0.036701	1.257132	0.061521	-0.204195	1.442290	0.068184	0.005638	1.414160	0.104524
1542	15.420000	-0.072299	1.555561	-0.052259	-0.100042	1.321652	-0.142521	-0.283300	1.148540	0.074566	-0.247574	1.142944	0.016331	-0.270413	0.883497	0.121439	-0.216894	0.886468	0.151607	-0.233904	1.476593	0.057841	-0.291224	0.939130	0.137610	-0.283851	0.886787	0.151668	-0.262439	0.894169	0.168456	-0.256674	0.951374	0.164432	-0.236421	1.245852	0.139449	-0.287783	1.258239	0.110230	-0.287257	1.321886	0.114410	-0.232973	1.319783	0.136882	0.050937	1.447944	0.061363	0.012648	1.392473	0.112612	0.013142	1.443391	0.085173	0.066994	1.398926	0.078082	-0.004485	1.462428	0.029244	0.036716	1.257093	0.061677	-0.204093	1.442203	0.068915	0.005676	1.414072	0.104724
1543	15.430000	-0.072393	1.555542	-0.051951	-0.100157	1.321657	-0.142268	-0.282284	1.148193	0.074305	-0.247088	1.143053	0.015706	-0.273407	0.882544	0.116421	-0.219761	0.883997	0.146476	-0.233907	1.476509	0.058237	-0.293378	0.938283	0.133743	-0.286788	0.885567	0.146680	-0.265298	0.892280	0.163695	-0.258559	0.949586	0.160410	-0.235054	1.245152	0.139192	-0.286676	1.257618	0.110532	-0.286391	1.321187	0.115119	-0.231861	1.319069	0.137036	0.050982	1.447912	0.061610	0.012756	1.392382	0.112812	0.013199	1.443305	0.085422	0.067052	1.398878	0.078232	-0.004505	1.462395	0.029474	0.036757	1.257058	0.061812	-0.203986	1.442118	0.069684	0.005692	1.414093	0.105025
1544	15.440000	-0.072468	1.555549	-0.051618	-0.100258	1.321703	-0.142031	-0.281343	1.147879	0.073815	-0.246600	1.143216	0.014906	-0.276181	0.881837	0.111554	-0.222463	0.881894	0.141514	-0.233886	1.476432	0.058651	-0.295473	0.937929	0.129849	-0.289592	0.884616	0.141822	-0.268127	0.890934	0.158598	-0.260222	0.947624	0.156819	-0.233790	1.244543	0.138837	-0.285752	1.257055	0.110736	-0.285514	1.320565	0.115796	-0.230847	1.318421	0.137251	0.051057	1.447888	0.061791	0.012883	1.392287	0.112991	0.013284	1.443252	0.085637	0.067144	1.398830	0.078372	-0.004503	1.462373	0.029710	0.036819	1.257028	0.061916	-0.203874	1.442042	0.070491	0.005769	1.414037	0.105199
1545	15.450000	-0.072533	1.555570	-0.051269	-0.100351	1.321773	-0.141798	-0.280494	1.147603	0.073119	-0.246127	1.143430	0.013954	-0.278751	0.881341	0.106843	-0.225007	0.880121	0.136733	-0.233848	1.476358	0.059082	-0.297367	0.937328	0.126001	-0.292106	0.884073	0.136842	-0.270608	0.889446	0.153938	-0.261954	0.946266	0.152994	-0.232741	1.243944	0.138497	-0.284882	1.256498	0.110812	-0.284849	1.319987	0.116304	-0.230026	1.317881	0.137345	0.051123	1.447866	0.061982	0.012990	1.392226	0.113157	0.013364	1.443207	0.085855	0.067217	1.398810	0.078520	-0.004486	1.462359	0.029950	0.036900	1.257002	0.062001	-0.203766	1.441973	0.071306	0.005772	1.414002	0.105532
1546	15.460000	-0.072580	1.555611	-0.050906	-0.100430	1.321873	-0.141579	-0.279742	1.147371	0.072232	-0.245667	1.143694	0.012865	-0.281104	0.881025	0.102291	-0.227381	0.878654	0.132149	-0.233794	1.476292	0.059517	-0.298489	0.936480	0.121762	-0.294513	0.883353	0.132181	-0.272923	0.888391	0.149428	-0.263634	0.945058	0.149386	-0.231823	1.243383	0.138056	-0.284179	1.255998	0.110768	-0.284230	1.319478	0.116616	-0.229248	1.317325	0.137337	0.051175	1.447834	0.062159	0.013084	1.392173	0.113329	0.013397	1.443156	0.086048	0.067266	1.398780	0.078654	-0.004453	1.462354	0.030193	0.036995	1.256981	0.062065	-0.203663	1.441915	0.072122	0.005867	1.413893	0.105759
1547	15.470000	-0.072609	1.555671	-0.050534	-0.100489	1.322003	-0.141377	-0.279088	1.147186	0.071178	-0.245222	1.144003	0.011663	-0.283240	0.880855	0.097901	-0.229580	0.877460	0.127773	-0.233727	1.476236	0.059945	-0.299744	0.936028	0.117834	-0.296739	0.882896	0.127823	-0.275184	0.887476	0.145118	-0.265124	0.943984	0.145835	-0.231228	1.242869	0.137644	-0.283600	1.255518	0.110495	-0.283775	1.318975	0.116742	-0.228930	1.316965	0.137351	0.051196	1.447800	0.062322	0.013174	1.392116	0.113500	0.013470	1.443121	0.086224	0.067382	1.398795	0.078811	-0.004406	1.462359	0.030437	0.037099	1.256967	0.062111	-0.203571	1.441869	0.072923	0.005952	1.413860	0.105955
1548	15.480000	-0.072627	1.555739	-0.050163	-0.100536	1.322143	-0.141183	-0.278536	1.147045	0.070000	-0.244805	1.144346	0.010384	-0.285175	0.880798	0.093680	-0.231613	0.876495	0.123611	-0.233655	1.476187	0.060363	-0.301480	0.935877	0.114170	-0.298670	0.882523	0.123520	-0.277031	0.886769	0.140903	-0.266521	0.943224	0.142442	-0.230821	1.242365	0.137136	-0.283220	1.255122	0.110000	-0.283520	1.318526	0.116755	-0.228394	1.316321	0.137271	0.051278	1.447788	0.062522	0.013284	1.392083	0.113687	0.013558	1.443097	0.086404	0.067501	1.398707	0.078928	-0.004352	1.462369	0.030681	0.037206	1.256957	0.062153	-0.203497	1.441832	0.073687	0.006145	1.413716	0.106068
1549	15.490000	-0.072625	1.555824	-0.049794	-0.100559	1.322307	-0.141011	-0.278075	1.146947	0.068721	-0.244408	1.144718	0.009051	-0.286896	0.880824	0.089633	-0.233465	0.875733	0.119674	-0.233578	1.476150	0.060754	-0.302749	0.935765	0.110764	-0.300642	0.882190	0.119294	-0.278828	0.886229	0.136930	-0.267775	0.942518	0.139134	-0.230487	1.241895	0.136460	-0.283000	1.254784	0.109472	-0.283372	1.318096	0.116616	-0.228305	1.315873	0.137167	0.051311	1.447775	0.062696	0.013385	1.392060	0.113858	0.013635	1.443067	0.086586	0.067549	1.398716	0.079074	-0.004291	1.462388	0.030924	0.037311	1.256953	0.062184	-0.203442	1.441806	0.074415	0.006243	1.413687	0.106263
1550	15.500000	-0.072615	1.555910	-0.049438	-0.100567	1.322471	-0.140849	-0.277705	1.146886	0.067389	-0.244043	1.145103	0.007701	-0.288431	0.880905	0.085771	-0.235155	0.875127	0.115963	-0.233505	1.476120	0.061117	-0.303911	0.935739	0.107359	-0.302190	0.882009	0.115455	-0.280392	0.885726	0.133084	-0.269008	0.941915	0.136010	-0.230431	1.241473	0.135848	-0.282844	1.254442	0.108857	-0.283326	1.317733	0.116362	-0.228285	1.315418	0.136965	0.051382	1.447776	0.062870	0.013501	1.392038	0.114035	0.013722	1.443037	0.086779	0.067643	1.398708	0.079214	-0.004231	1.462411	0.031164	0.037409	1.256952	0.062221	-0.203411	1.441785	0.075085	0.006394	1.413633	0.106433
1551	15.510000	-0.072596	1.555998	-0.049098	-0.100557	1.322637	-0.140702	-0.277415	1.146854	0.066036	-0.243710	1.145490	0.006361	-0.289783	0.881015	0.082105	-0.236680	0.874648	0.112483	-0.233441	1.476098	0.061443	-0.304933	0.935694	0.104196	-0.303627	0.881843	0.111773	-0.281920	0.885385	0.129542	-0.270010	0.941276	0.132848	-0.230493	1.241070	0.135239	-0.282829	1.254169	0.108230	-0.283314	1.317397	0.116039	-0.228340	1.314995	0.136784	0.051445	1.447789	0.063043	0.013612	1.392018	0.114199	0.013791	1.443011	0.086947	0.067716	1.398711	0.079344	-0.004176	1.462436	0.031400	0.037494	1.256954	0.062264	-0.203402	1.441766	0.075696	0.006492	1.413575	0.106608
1552	15.520000	-0.072568	1.556086	-0.048779	-0.100528	1.322799	-0.140571	-0.277193	1.146844	0.064695	-0.243407	1.145867	0.005058	-0.290963	0.881137	0.078646	-0.238047	0.874266	0.109239	-0.233388	1.476083	0.061724	-0.305862	0.935657	0.101188	-0.304864	0.881732	0.108410	-0.283173	0.884999	0.126091	-0.271624	0.941329	0.130028	-0.230455	1.240665	0.134575	-0.282826	1.253948	0.107611	-0.283262	1.317114	0.115754	-0.228339	1.314617	0.136559	0.051501	1.447791	0.063230	0.013686	1.391982	0.114358	0.013811	1.442985	0.087156	0.067760	1.398712	0.079494	-0.004127	1.462462	0.031629	0.037563	1.256958	0.062316	-0.203416	1.441747	0.076245	0.006553	1.413553	0.106799
